<?xml version="1.0" encoding="utf-8"?>
<svg width="90" height="16" viewBox="0 0 90 16" fill="none" xmlns="http://www.w3.org/2000/svg">
<g clip-path="url(#clip0_14_68)">
<path d="M8.40619 0.000112534L6.10933 5.65632L0 6.10944L4.67184 10.0625L3.21873 16L8.40619 12.7813L13.6093 16L12.1562 10.0625L16.828 6.10944L10.7187 5.65632L8.40619 0.000112534Z" fill="#EFCE4A"/>
<path d="M26.2342 0.000112534L23.9373 5.65632L17.828 6.10944L22.4998 10.0625L21.0467 16L26.2342 12.7813L31.4373 16L29.9842 10.0625L34.656 6.10944L28.5467 5.65632L26.2342 0.000112534Z" fill="#EFCE4A"/>
<path d="M44.0622 0.000112534L41.7653 5.65632L35.656 6.10944L40.3278 10.0625L38.8747 16L44.0622 12.7813L49.2653 16L47.8122 10.0625L52.484 6.10944L46.3747 5.65632L44.0622 0.000112534Z" fill="#EFCE4A"/>
<path d="M61.8902 0.000112534L59.5933 5.65632L53.484 6.10944L58.1559 10.0625L56.7027 16L61.8902 12.7813L67.0933 16L65.6402 10.0625L70.312 6.10944L64.2027 5.65632L61.8902 0.000112534Z" fill="#EFCE4A"/>
<path d="M79.7182 0.000112534L77.4213 5.65632L71.312 6.10944L75.9839 10.0625L74.5307 16L79.7182 12.7813L84.9213 16L83.4682 10.0625L88.14 6.10944L82.0307 5.65632L79.7182 0.000112534Z" fill="#EFCE4A"/>
</g>
<defs>
<clipPath id="clip0_14_68">
<rect width="89.14" height="16" fill="white"/>
</clipPath>
</defs>
</svg>
