<svg width="16" height="16" viewBox="0 0 16 16" fill="none" xmlns="http://www.w3.org/2000/svg">
<path d="M13.2981 3.41971L12.305 2.74513C12.1732 2.65589 12.0115 2.6224 11.8551 2.65198C11.6988 2.68155 11.5604 2.77178 11.4704 2.90298L6.60205 10.0808L4.36507 7.84439C4.25247 7.73244 4.10015 7.66961 3.94137 7.66961C3.7826 7.66961 3.63028 7.73244 3.51768 7.84439L2.66642 8.69454C2.5543 8.80761 2.49139 8.96039 2.49139 9.11962C2.49139 9.27885 2.5543 9.43163 2.66642 9.5447L6.10691 12.9846C6.29965 13.1774 6.60261 13.3241 6.8751 13.3241C7.14759 13.3241 7.4223 13.1536 7.59953 12.896L13.4581 4.2527C13.5024 4.18752 13.5333 4.11425 13.5492 4.03709C13.5651 3.95993 13.5657 3.88038 13.5508 3.80302C13.5359 3.72565 13.506 3.65197 13.4626 3.5862C13.4192 3.52043 13.3633 3.46385 13.2981 3.41971Z" fill="white"/>
</svg>
