<?xml version="1.0" encoding="utf-8"?>
<svg width="24" height="22" viewBox="0 0 24 22" fill="none" xmlns="http://www.w3.org/2000/svg">
<path d="M20.133 4.31705C21.013 5.19805 21.452 6.34805 21.452 7.50105C21.452 8.65405 21.012 9.80405 20.133 10.683L12 18.816L3.86701 10.683C2.98801 9.80405 2.54901 8.65405 2.54901 7.50005C2.54901 6.34605 2.98801 5.19605 3.86701 4.31705C4.74601 3.43805 5.89601 2.99905 7.05001 2.99905C8.20401 2.99905 9.35401 3.43805 10.233 4.31705L11.293 5.37705C11.684 5.76805 12.317 5.76805 12.707 5.37705L13.769 4.31505C14.648 3.43605 15.798 2.99705 16.951 2.99805C18.104 2.99905 19.254 3.43805 20.133 4.31705ZM21.547 2.90305C20.278 1.63405 18.613 0.999048 16.951 0.998048C15.289 0.997048 13.624 1.63205 12.354 2.90105L12 3.25605L11.647 2.90305C10.378 1.63405 8.71201 0.999048 7.05001 0.999048C5.38801 0.999048 3.72201 1.63405 2.45301 2.90305C1.18401 4.17205 0.549011 5.83805 0.549011 7.50005C0.549011 9.16205 1.18401 10.828 2.45301 12.097L11.293 20.937C11.684 21.328 12.317 21.328 12.707 20.937L21.547 12.097C22.816 10.828 23.451 9.16305 23.452 7.50105C23.453 5.83905 22.818 4.17405 21.547 2.90305Z" fill="#B7B7B7"/>
</svg>
