<?xml version="1.0" encoding="utf-8"?>
<svg width="15" height="16" viewBox="0 0 15 16" fill="none" xmlns="http://www.w3.org/2000/svg">
<path d="M4.12731 13.8524C4.12731 14.9779 3.214 15.8913 2.08868 15.8913C0.963355 15.8913 0.0500488 14.9779 0.0500488 13.8524C0.0500488 12.727 0.963355 11.8135 2.08868 11.8135C3.214 11.8135 4.12731 12.727 4.12731 13.8524ZM9.56365 15.1587C9.57453 15.3496 9.51065 15.5304 9.3829 15.6684C9.25582 15.8172 9.07506 15.8913 8.88411 15.8913H7.45095C7.10031 15.8913 6.81354 15.6256 6.78228 15.2756C6.47445 12.0364 3.9051 9.46677 0.666395 9.1589C0.31575 9.12695 0.0507284 8.84015 0.0507284 8.49014V7.0568C0.0507284 6.86582 0.124799 6.68504 0.273619 6.55795C0.3905 6.44106 0.560386 6.37717 0.730272 6.37717H0.783276C3.0448 6.55795 5.17924 7.54545 6.78228 9.15958C8.3962 10.7628 9.38358 12.8975 9.56433 15.1593L9.56365 15.1587ZM15 15.1797C15.0109 15.3605 14.947 15.5406 14.809 15.6786C14.682 15.8165 14.5114 15.8913 14.3205 15.8913H12.8024C12.4415 15.8913 12.1439 15.6154 12.1228 15.2538C11.7722 9.08414 6.85635 4.16769 0.68746 3.80613C0.326623 3.78506 0.0500488 3.48739 0.0500488 3.13738V1.61908C0.0500488 1.42811 0.124119 1.2582 0.262746 1.13043C0.38982 1.00334 0.560386 0.939453 0.730272 0.939453H0.76221C4.47863 1.13043 7.97148 2.69154 10.6047 5.33598C13.2488 7.96954 14.809 11.4635 15 15.1797Z" fill="#B9C8D9"/>
</svg>
