<?xml version="1.0" encoding="utf-8"?>
<svg width="18" height="19" viewBox="0 0 18 19" fill="none" xmlns="http://www.w3.org/2000/svg">
<path d="M4.89417 0.38916C3.55338 0.38916 2.33883 0.933727 1.46088 1.81086C0.582942 2.68799 0.0391846 3.90336 0.0391846 5.24414V13.3358C0.0391846 14.6766 0.583752 15.8911 1.46088 16.7691C2.33802 17.647 3.55338 18.1908 4.89417 18.1908H12.9858C14.3266 18.1908 15.5411 17.6462 16.4191 16.7691C17.297 15.8919 17.8408 14.6766 17.8408 13.3358V5.24414C17.8408 3.90336 17.2962 2.6888 16.4191 1.81086C15.5419 0.932918 14.3266 0.38916 12.9858 0.38916H4.89417ZM4.89417 2.00749H12.9858C13.8799 2.00749 14.6875 2.36918 15.2741 2.95583C15.8608 3.54247 16.2225 4.35002 16.2225 5.24414V13.3358C16.2225 14.2299 15.8608 15.0374 15.2741 15.6241C14.6875 16.2107 13.8799 16.5724 12.9858 16.5724H4.89417C4.00004 16.5724 3.19249 16.2107 2.60585 15.6241C2.01921 15.0374 1.65751 14.2299 1.65751 13.3358V5.24414C1.65751 4.35002 2.01921 3.54247 2.60585 2.95583C3.19249 2.36918 4.00004 2.00749 4.89417 2.00749ZM12.9769 8.66124C12.8555 7.87473 12.5149 7.15862 12.0108 6.58412C11.4006 5.88743 10.551 5.39869 9.57598 5.25385C9.20053 5.19397 8.7911 5.19155 8.38085 5.25223C7.27553 5.41568 6.34095 6.01366 5.72518 6.84386C5.1094 7.67406 4.80839 8.74296 4.97265 9.84747C5.13691 10.952 5.73408 11.8874 6.56428 12.5031C7.39448 13.1189 8.46339 13.4199 9.56789 13.2557C10.6724 13.0914 11.6078 12.4942 12.2236 11.664C12.8393 10.8338 13.1404 9.76494 12.9761 8.66043L12.9769 8.66124ZM11.3764 8.89913C11.4751 9.56265 11.2955 10.2011 10.9249 10.7011C10.5543 11.2012 9.99432 11.558 9.33162 11.656C8.66891 11.7539 8.02967 11.575 7.52961 11.2044C7.02955 10.8338 6.67271 10.2739 6.5748 9.6112C6.47689 8.94849 6.65571 8.30925 7.02631 7.80919C7.39691 7.30913 7.95685 6.95228 8.61955 6.85438C8.87282 6.81715 9.11719 6.82039 9.32353 6.85276C9.92231 6.94177 10.4288 7.23306 10.7946 7.65059C11.098 7.99691 11.3044 8.42982 11.3772 8.89913H11.3764ZM14.1995 4.83956C14.1995 4.3929 13.837 4.0304 13.3904 4.0304C12.9437 4.0304 12.5812 4.3929 12.5812 4.83956C12.5812 5.28622 12.9437 5.64872 13.3904 5.64872C13.837 5.64872 14.1995 5.28622 14.1995 4.83956Z" fill="#B9C8D9"/>
</svg>
