<?xml version="1.0" encoding="utf-8"?>
<svg width="79" height="79" viewBox="0 0 79 79" fill="none" xmlns="http://www.w3.org/2000/svg">
<path d="M78.58 39.0801C78.58 60.5301 61.03 78.0801 39.58 78.0801C18.13 78.0801 0.579956 60.5301 0.579956 39.0801C0.579956 17.6301 18.13 0.0800781 39.58 0.0800781C61.03 0.0800781 78.58 17.6301 78.58 39.0801ZM27.88 23.4801C27.88 30.1101 32.95 35.1791 39.58 35.1791C46.21 35.1791 51.28 30.1091 51.28 23.4791C51.28 16.8491 46.21 11.7791 39.58 11.7791C32.95 11.7791 27.88 16.8501 27.88 23.4801ZM62.98 54.6791C62.98 46.8791 47.38 42.5891 39.58 42.5891C31.78 42.5891 16.18 46.8791 16.18 54.6791C21.25 62.0891 29.83 67.1591 39.58 67.1591C49.33 67.1591 57.91 62.0891 62.98 54.6791Z" fill="#253242"/>
</svg>
