<svg width="71" height="71" viewBox="0 0 71 71" fill="none" xmlns="http://www.w3.org/2000/svg">
<path d="M70.78 35.3291C70.78 54.6581 55.109 70.3291 35.78 70.3291C16.45 70.3301 0.780029 54.6571 0.780029 35.3301C0.780029 16.0001 16.45 0.330078 35.78 0.330078C55.109 0.330078 70.78 15.9991 70.78 35.3291ZM38.2 39.5641V14.8541C38.1872 14.2206 37.9265 13.6175 37.4739 13.1741C37.0214 12.7306 36.4131 12.4823 35.7795 12.4823C35.146 12.4823 34.5376 12.7306 34.0851 13.1741C33.6326 13.6175 33.3719 14.2206 33.359 14.8541V35.7461L23.392 31.0461C22.8157 30.8003 22.1665 30.7874 21.5809 31.0102C20.9952 31.233 20.5187 31.674 20.2514 32.2407C19.9841 32.8074 19.9468 33.4557 20.1474 34.0493C20.348 34.6429 20.7708 35.1356 21.327 35.4241L34.747 41.7541C34.761 41.7601 34.775 41.7621 34.787 41.7681C34.904 41.8211 35.026 41.8581 35.15 41.8921C35.192 41.9031 35.233 41.9221 35.275 41.9311C35.409 41.9591 35.548 41.9701 35.688 41.9751C35.718 41.9761 35.748 41.9861 35.778 41.9861C35.9648 41.9845 36.1507 41.961 36.332 41.9161C36.443 41.8901 36.551 41.8561 36.657 41.8151C36.685 41.8051 36.714 41.7971 36.741 41.7851C36.867 41.7301 36.988 41.6641 37.104 41.5881L37.187 41.5281C37.2771 41.4641 37.3623 41.3936 37.442 41.3171L37.521 41.2421C37.6141 41.1463 37.6991 41.0429 37.775 40.9331L37.789 40.9151C37.856 40.8151 37.917 40.7091 37.97 40.5971C37.976 40.5831 37.979 40.5681 37.985 40.5541C38.021 40.4741 38.047 40.3881 38.074 40.3041C38.097 40.2321 38.124 40.1631 38.139 40.0921C38.155 40.0241 38.159 39.9531 38.169 39.8841C38.181 39.7921 38.195 39.7001 38.197 39.6081C38.197 39.5931 38.201 39.5781 38.201 39.5641H38.2Z" fill="#253242"/>
</svg>
