<svg width="15" height="16" viewBox="0 0 15 16" fill="none" xmlns="http://www.w3.org/2000/svg">
<path d="M14.0954 0.244385C14.5518 0.244385 14.9211 0.613936 14.9211 1.07059V14.3495C14.9211 14.8062 14.5518 15.1757 14.0954 15.1757H10.2974V9.39171H12.2303L12.5219 7.13645H10.2974V5.69806C10.2974 5.04668 10.4721 4.60932 11.4146 4.60932L12.5996 4.59937V2.58736C12.3957 2.55812 11.6863 2.49964 10.8706 2.49964C9.15097 2.49964 7.96599 3.54919 7.96599 5.47409V7.13645H6.02313V9.39171H7.96599V15.1757H0.826244C0.369907 15.1757 0.000610352 14.8062 0.000610352 14.3495V1.07059C0.000610352 0.613936 0.369907 0.244385 0.826244 0.244385H14.0954Z" fill="#B9C8D9"/>
</svg>
