<?xml version="1.0" encoding="utf-8"?>
<svg width="25" height="24" viewBox="0 0 25 24" fill="none" xmlns="http://www.w3.org/2000/svg">
<g clip-path="url(#clip0_9_382)">
<path d="M9.53003 21.75C9.53003 22.9927 8.52278 24 7.28003 24C6.03728 24 5.03003 22.9927 5.03003 21.75C5.03003 20.5073 6.03728 19.5 7.28003 19.5C8.52278 19.5 9.53003 20.5073 9.53003 21.75Z" fill="#8C98A5"/>
<path d="M24.53 21.75C24.53 22.9927 23.5228 24 22.28 24C21.0373 24 20.03 22.9927 20.03 21.75C20.03 20.5073 21.0373 19.5 22.28 19.5C23.5228 19.5 24.53 20.5073 24.53 21.75Z" fill="#8C98A5"/>
<path d="M24.53 12V3H6.53003C6.53003 2.17125 5.85878 1.5 5.03003 1.5H0.530029V3H3.53003L4.65653 12.6578C3.97028 13.2075 3.53003 14.052 3.53003 15C3.53003 16.6568 4.87328 18 6.53003 18H24.53V16.5H6.53003C5.70128 16.5 5.03003 15.8288 5.03003 15C5.03003 14.9947 5.03003 14.9895 5.03003 14.985L24.53 12Z" fill="#8C98A5"/>
</g>
<defs>
<clipPath id="clip0_9_382">
<rect width="24" height="24" fill="white" transform="translate(0.530029)"/>
</clipPath>
</defs>
</svg>
