<?xml version="1.0" encoding="utf-8"?>
<svg width="18" height="18" viewBox="0 0 18 18" fill="none" xmlns="http://www.w3.org/2000/svg">
<path d="M17.844 17.84C17.7948 17.891 17.7359 17.9316 17.6707 17.9594C17.6055 17.9871 17.5354 18.0014 17.4645 18.0014C17.3936 18.0014 17.3235 17.9871 17.2583 17.9594C17.1931 17.9316 17.1342 17.891 17.085 17.84L12.71 13.465C11.3154 14.6817 9.52674 15.3511 7.676 15.349C3.445 15.35 0 11.905 0 7.67402C0 3.44402 3.441 -0.000976562 7.676 -0.000976562C11.908 -0.000976562 15.353 3.43902 15.353 7.67402C15.353 9.59802 14.643 11.358 13.469 12.707L17.844 17.082C17.9435 17.1831 17.9993 17.3192 17.9993 17.461C17.9993 17.6029 17.9435 17.739 17.844 17.84ZM7.672 14.275C11.312 14.275 14.271 11.31 14.271 7.67402C14.2689 5.92469 13.5729 4.24765 12.3357 3.01087C11.0986 1.7741 9.42133 1.07861 7.672 1.07702C5.92284 1.07888 4.24584 1.77448 3.00891 3.01123C1.77197 4.24797 1.07612 5.92487 1.074 7.67402C1.074 11.314 4.036 14.275 7.672 14.275Z" fill="white"/>
</svg>
