<?xml version="1.0" encoding="utf-8"?>
<svg width="25" height="16" viewBox="0 0 25 16" fill="none" xmlns="http://www.w3.org/2000/svg">
<path d="M24.2666 8.81647V12.8999C24.2666 13.1117 24.0984 13.2829 23.8906 13.2829H22.6624L22.6632 13.3085C22.6632 14.6453 21.5954 15.733 20.2832 15.733C18.9712 15.733 17.9032 14.6453 17.9032 13.3085L17.904 13.2829H9.43516L9.43569 13.3085C9.43569 14.6453 8.36796 15.733 7.05569 15.733C5.74369 15.733 4.67569 14.6453 4.67569 13.3085L4.67649 13.2829H2.64662C2.21836 13.2829 1.87009 12.9282 1.87009 12.4917V11.6495H0.642357C0.434891 11.6495 0.266357 11.4781 0.266357 11.2666C0.266357 11.0551 0.434891 10.8837 0.642357 10.8837H4.24982C4.45756 10.8837 4.62582 11.0551 4.62582 11.2666C4.62582 11.4781 4.45729 11.6495 4.24982 11.6495H2.62156V12.4917C2.62156 12.5058 2.63276 12.5173 2.64662 12.5173H4.80662C5.12929 11.5677 6.01542 10.8837 7.05569 10.8837C8.09622 10.8837 8.98209 11.5677 9.30502 12.5173H17.1013V9.63327C17.1013 9.4218 17.2693 9.25034 17.4773 9.25034C17.6845 9.25034 17.8528 9.4218 17.8528 9.63327V12.5173H18.0338C18.3565 11.5679 19.2426 10.8837 20.2829 10.8837C21.3234 10.8837 22.2093 11.5677 22.5322 12.5173H23.5146V10.8327H23.0888C22.4394 10.8327 21.9114 10.2949 21.9114 9.63327V8.81674C21.9114 8.605 22.0794 8.4338 22.2872 8.4338H23.4557C23.2965 7.93114 22.8333 7.56634 22.2877 7.56607H17.8533V7.99994C17.8533 8.2114 17.685 8.3826 17.4773 8.3826C17.2698 8.3826 17.1016 8.21114 17.1016 7.99994V1.05753C17.1016 1.05086 17.0989 1.04446 17.0942 1.03972C17.0895 1.03497 17.0832 1.03227 17.0765 1.0322H2.64662C2.63995 1.03227 2.63358 1.03497 2.62888 1.03972C2.62419 1.04446 2.62156 1.05086 2.62156 1.05753V7.99994C2.62156 8.21114 2.45329 8.3826 2.24556 8.3826C2.03809 8.3826 1.86982 8.21114 1.86982 7.99994V1.05753C1.86982 0.621268 2.21862 0.266602 2.64662 0.266602H17.0768C17.5048 0.266602 17.8533 0.621535 17.8533 1.0578V1.9002H20.6842C21.5544 1.9002 22.2624 2.62154 22.2624 3.5082V3.91647C22.2629 4.00338 22.2336 4.08785 22.1796 4.15589C22.1255 4.22393 22.0498 4.27146 21.965 4.2906L22.5864 6.8234C23.5365 6.97087 24.2664 7.80847 24.2664 8.81674L24.2666 8.81647ZM17.8533 3.53327H21.5109V3.50767C21.5109 3.04367 21.1402 2.66554 20.6842 2.66554H17.8533V3.53327ZM17.8533 6.8002H21.8061L21.1925 4.29887H17.8533V6.8002ZM8.68422 13.3085C8.68422 12.3938 7.95356 11.6498 7.05569 11.6498C6.15782 11.6498 5.42742 12.3938 5.42742 13.3085C5.42742 14.2231 6.15782 14.9674 7.05569 14.9674C7.95356 14.9674 8.68422 14.2231 8.68422 13.3085ZM21.9117 13.3085C21.9117 12.3938 21.181 11.6498 20.2834 11.6498C19.3853 11.6498 18.6549 12.3938 18.6549 13.3085C18.6549 14.2231 19.3856 14.9674 20.2834 14.9674C21.1813 14.9674 21.9117 14.2231 21.9117 13.3085ZM23.5149 10.0671V9.1994H22.6632V9.63327C22.6632 9.87247 22.8544 10.0671 23.089 10.0671H23.5149ZM7.83222 13.3085C7.83222 13.7447 7.48396 14.0999 7.05569 14.0999C6.62742 14.0999 6.27916 13.7447 6.27916 13.3085C6.27916 12.8722 6.62742 12.5173 7.05569 12.5173C7.48396 12.5173 7.83222 12.8719 7.83222 13.3085ZM21.06 13.3085C21.06 13.7447 20.7114 14.0999 20.2832 14.0999C19.8552 14.0999 19.5066 13.7447 19.5066 13.3085C19.5066 12.8722 19.8552 12.5173 20.2832 12.5173C20.7114 12.5173 21.06 12.8719 21.06 13.3085Z" fill="white"/>
<path d="M24.2666 8.81647V12.8999C24.2666 13.1117 24.0984 13.2829 23.8906 13.2829H22.6624L22.6632 13.3085C22.6632 14.6453 21.5954 15.733 20.2832 15.733C18.9712 15.733 17.9032 14.6453 17.9032 13.3085L17.904 13.2829H9.43516L9.43569 13.3085C9.43569 14.6453 8.36796 15.733 7.05569 15.733C5.74369 15.733 4.67569 14.6453 4.67569 13.3085L4.67649 13.2829H2.64662C2.21836 13.2829 1.87009 12.9282 1.87009 12.4917V11.6495H0.642357C0.434891 11.6495 0.266357 11.4781 0.266357 11.2666C0.266357 11.0551 0.434891 10.8837 0.642357 10.8837H4.24982C4.45756 10.8837 4.62582 11.0551 4.62582 11.2666C4.62582 11.4781 4.45729 11.6495 4.24982 11.6495H2.62156V12.4917C2.62156 12.5058 2.63276 12.5173 2.64662 12.5173H4.80662C5.12929 11.5677 6.01542 10.8837 7.05569 10.8837C8.09622 10.8837 8.98209 11.5677 9.30502 12.5173H17.1013V9.63327C17.1013 9.4218 17.2693 9.25034 17.4773 9.25034C17.6845 9.25034 17.8528 9.4218 17.8528 9.63327V12.5173H18.0338C18.3565 11.5679 19.2426 10.8837 20.2829 10.8837C21.3234 10.8837 22.2093 11.5677 22.5322 12.5173H23.5146V10.8327H23.0888C22.4394 10.8327 21.9114 10.2949 21.9114 9.63327V8.81674C21.9114 8.605 22.0794 8.4338 22.2872 8.4338H23.4557C23.2965 7.93114 22.8333 7.56634 22.2877 7.56607H17.8533V7.99994C17.8533 8.2114 17.685 8.3826 17.4773 8.3826C17.2698 8.3826 17.1016 8.21114 17.1016 7.99994V1.05753C17.1016 1.05086 17.0989 1.04446 17.0942 1.03972C17.0895 1.03497 17.0832 1.03227 17.0765 1.0322H2.64662C2.63995 1.03227 2.63358 1.03497 2.62888 1.03972C2.62419 1.04446 2.62156 1.05086 2.62156 1.05753V7.99994C2.62156 8.21114 2.45329 8.3826 2.24556 8.3826C2.03809 8.3826 1.86982 8.21114 1.86982 7.99994V1.05753C1.86982 0.621268 2.21862 0.266602 2.64662 0.266602H17.0768C17.5048 0.266602 17.8533 0.621535 17.8533 1.0578V1.9002H20.6842C21.5544 1.9002 22.2624 2.62154 22.2624 3.5082V3.91647C22.2629 4.00338 22.2336 4.08785 22.1796 4.15589C22.1255 4.22393 22.0498 4.27146 21.965 4.2906L22.5864 6.8234C23.5365 6.97087 24.2664 7.80847 24.2664 8.81674L24.2666 8.81647ZM17.8533 3.53327H21.5109V3.50767C21.5109 3.04367 21.1402 2.66554 20.6842 2.66554H17.8533V3.53327ZM17.8533 6.8002H21.8061L21.1925 4.29887H17.8533V6.8002ZM8.68422 13.3085C8.68422 12.3938 7.95356 11.6498 7.05569 11.6498C6.15782 11.6498 5.42742 12.3938 5.42742 13.3085C5.42742 14.2231 6.15782 14.9674 7.05569 14.9674C7.95356 14.9674 8.68422 14.2231 8.68422 13.3085ZM21.9117 13.3085C21.9117 12.3938 21.181 11.6498 20.2834 11.6498C19.3853 11.6498 18.6549 12.3938 18.6549 13.3085C18.6549 14.2231 19.3856 14.9674 20.2834 14.9674C21.1813 14.9674 21.9117 14.2231 21.9117 13.3085ZM23.5149 10.0671V9.1994H22.6632V9.63327C22.6632 9.87247 22.8544 10.0671 23.089 10.0671H23.5149ZM7.83222 13.3085C7.83222 13.7447 7.48396 14.0999 7.05569 14.0999C6.62742 14.0999 6.27916 13.7447 6.27916 13.3085C6.27916 12.8722 6.62742 12.5173 7.05569 12.5173C7.48396 12.5173 7.83222 12.8719 7.83222 13.3085ZM21.06 13.3085C21.06 13.7447 20.7114 14.0999 20.2832 14.0999C19.8552 14.0999 19.5066 13.7447 19.5066 13.3085C19.5066 12.8722 19.8552 12.5173 20.2832 12.5173C20.7114 12.5173 21.06 12.8719 21.06 13.3085Z" stroke="white" stroke-opacity="0.16" stroke-miterlimit="50" stroke-linecap="round" stroke-linejoin="round"/>
</svg>
