<?xml version="1.0" encoding="utf-8"?>
<svg width="17" height="14" viewBox="0 0 17 14" fill="none" xmlns="http://www.w3.org/2000/svg">
<path d="M15.5021 1.29906C15.0917 0.888105 14.6042 0.562538 14.0675 0.341133C13.5309 0.119729 12.9557 0.0068677 12.3753 0.00905892C11.1925 0.00905892 10.0806 0.468059 9.24448 1.30206L8.80693 1.73706L8.36338 1.29506C7.95187 0.882954 7.46312 0.556243 6.92517 0.333671C6.38723 0.111099 5.81067 -0.00295271 5.22859 -0.00194108C4.64871 -0.00329775 4.07427 0.109956 3.53822 0.331324C3.00216 0.552693 2.51504 0.87782 2.10478 1.28806C1.69221 1.69553 1.36515 2.18144 1.14281 2.71723C0.920482 3.25302 0.807364 3.82789 0.810107 4.40806C0.810107 5.58606 1.27463 6.69006 2.11178 7.52406L8.47527 13.8641C8.56026 13.9496 8.67559 13.998 8.79611 13.9988C8.91663 13.9995 9.03256 13.9525 9.11861 13.8681L15.4961 7.53806C15.9085 7.13011 16.2357 6.64403 16.4585 6.10819C16.6813 5.57235 16.7952 4.99746 16.7938 4.41706C16.7971 3.83707 16.6846 3.26226 16.4627 2.72645C16.2409 2.19064 15.9143 1.70465 15.5021 1.29706V1.29906Z" fill="#8C98A5"/>
</svg>
