<?xml version="1.0" encoding="utf-8"?>
<svg width="27" height="23" viewBox="0 0 27 23" fill="none" xmlns="http://www.w3.org/2000/svg">
<path d="M12.97 13.5801V19.5801C12.97 21.2361 11.626 22.5801 9.96997 22.5801H3.96997C2.31397 22.5801 0.969971 21.2361 0.969971 19.5801V8.58008C0.969971 4.17408 4.56397 0.580078 8.96997 0.580078H9.96997C10.517 0.580078 10.97 1.03308 10.97 1.58008V3.58008C10.97 4.12708 10.517 4.58008 9.96997 4.58008H8.96997C6.76697 4.58008 4.96997 6.37708 4.96997 8.58008V9.08008C4.96997 9.90808 5.64197 10.5801 6.46997 10.5801H9.96997C11.626 10.5801 12.97 11.9241 12.97 13.5801ZM26.97 13.5801V19.5801C26.97 21.2361 25.626 22.5801 23.97 22.5801H17.97C16.314 22.5801 14.97 21.2361 14.97 19.5801V8.58008C14.97 4.17408 18.564 0.580078 22.97 0.580078H23.97C24.517 0.580078 24.97 1.03308 24.97 1.58008V3.58008C24.97 4.12708 24.517 4.58008 23.97 4.58008H22.97C20.767 4.58008 18.97 6.37708 18.97 8.58008V9.08008C18.97 9.90808 19.642 10.5801 20.47 10.5801H23.97C25.626 10.5801 26.97 11.9241 26.97 13.5801Z" fill="#BBCADB"/>
</svg>
