<?xml version="1.0" encoding="utf-8"?>
<svg width="24" height="22" viewBox="0 0 24 22" fill="none" xmlns="http://www.w3.org/2000/svg">
<path d="M19.853 4.267C20.733 5.148 21.172 6.298 21.172 7.451C21.172 8.604 20.732 9.754 19.853 10.633L11.72 18.766L3.58704 10.633C2.70804 9.754 2.26904 8.604 2.26904 7.45C2.26904 6.296 2.70804 5.146 3.58704 4.267C4.46604 3.388 5.61604 2.949 6.77004 2.949C7.92404 2.949 9.07404 3.388 9.95304 4.267L11.013 5.327C11.404 5.718 12.037 5.718 12.427 5.327L13.489 4.265C14.368 3.386 15.518 2.947 16.671 2.948C17.824 2.949 18.974 3.388 19.853 4.267ZM21.267 2.853C19.998 1.584 18.333 0.948999 16.671 0.947999C15.009 0.946999 13.344 1.582 12.074 2.851L11.72 3.206L11.367 2.853C10.098 1.584 8.43204 0.948999 6.77004 0.948999C5.10804 0.948999 3.44204 1.584 2.17304 2.853C0.904043 4.122 0.269043 5.788 0.269043 7.45C0.269043 9.112 0.904043 10.778 2.17304 12.047L11.013 20.887C11.404 21.278 12.037 21.278 12.427 20.887L21.267 12.047C22.536 10.778 23.171 9.113 23.172 7.451C23.173 5.789 22.538 4.124 21.267 2.853Z" fill="white"/>
</svg>
