<?xml version="1.0" encoding="utf-8"?>
<svg width="25" height="25" viewBox="0 0 25 25" fill="none" xmlns="http://www.w3.org/2000/svg">
<path d="M22.8019 0.949951C23.5359 0.949951 24.1299 1.54395 24.1299 2.27795V23.622C24.1299 24.356 23.5359 24.95 22.8019 24.95H16.6929V15.653H19.8019L20.2709 12.028H16.6929V9.71595C16.6929 8.66895 16.9739 7.96595 18.4899 7.96595L20.3959 7.94995V4.71595C20.0679 4.66895 18.9269 4.57495 17.6149 4.57495C14.8489 4.57495 12.9429 6.26195 12.9429 9.35595V12.028H9.81786V15.653H12.9429V24.95H1.45886C0.724859 24.95 0.130859 24.356 0.130859 23.622V2.27795C0.130859 1.54395 0.724859 0.949951 1.45886 0.949951H22.8019Z" fill="white"/>
</svg>
