<svg width="12" height="12" viewBox="0 0 12 12" fill="none" xmlns="http://www.w3.org/2000/svg">
<path d="M11.2981 1.41971L10.305 0.74513C10.1732 0.655892 10.0115 0.622404 9.85514 0.651977C9.69877 0.68155 9.56044 0.771781 9.47036 0.902976L4.60205 8.08082L2.36507 5.84439C2.25247 5.73244 2.10015 5.66961 1.94137 5.66961C1.7826 5.66961 1.63028 5.73244 1.51768 5.84439L0.666421 6.69454C0.554302 6.80761 0.491394 6.96039 0.491394 7.11962C0.491394 7.27885 0.554302 7.43163 0.666421 7.5447L4.10691 10.9846C4.29965 11.1774 4.60261 11.3241 4.8751 11.3241C5.14759 11.3241 5.4223 11.1536 5.59953 10.896L11.4581 2.2527C11.5024 2.18752 11.5333 2.11425 11.5492 2.03709C11.5651 1.95993 11.5657 1.88038 11.5508 1.80302C11.5359 1.72565 11.506 1.65197 11.4626 1.5862C11.4192 1.52043 11.3633 1.46385 11.2981 1.41971Z" fill="white"/>
</svg>
